<svg width="261" height="84" viewBox="0 0 261 84" fill="none" xmlns="http://www.w3.org/2000/svg">
<path fill-rule="evenodd" clip-rule="evenodd" d="M239.362 57.2662C233.601 64.2473 211.049 71.9963 199.047 63.5843C187.044 55.1723 182.3 49.31 180.696 38.7988C180.525 37.678 178.436 36.9325 177.552 37.7282C172.607 42.184 169.405 47.8591 166.233 53.5488C162.656 59.9658 159.133 66.4222 152.632 70.7662C141.117 76.7529 120.286 77.6055 114.132 74.9647C102.343 69.906 93.017 59.087 90.8963 44.1985C90.8963 44.1985 88.7392 37.5943 86.8496 36.2046C85.0583 34.8873 75.1727 33.7137 74.0898 33.5188C54.5735 30.0064 29.8905 27.7675 12.508 40.1246C10.1556 41.5039 2.10235 46.6855 1.98332 45.4114C1.89909 40.4207 7.72998 29.1247 20.9912 23.7498C37.3903 17.1031 61.7675 16.7144 75.8898 18.1813C76.6001 18.255 79.0213 17.678 79.1923 17.6061C100.588 8.62123 125.206 11.0075 148.099 14.7839C151.379 15.4013 180.747 22.4545 192.428 18.1813C211.742 10.5336 232.334 4.99305 253.19 7.17283C253.364 7.19105 255.997 22.6923 253.946 23.7498C252.314 24.5914 249.537 26.7479 248.55 27.928C247.668 28.9831 247.112 30.2947 247.161 32.1118C247.558 42.6235 244.466 51.0814 239.362 57.2662ZM159.952 47.8864C162.401 44.4503 163.174 36.7314 162.148 31.1003C161.629 28.249 160.621 25.9795 159.356 24.8498C158.515 24.0988 157.556 23.7453 156.509 23.7978C155.936 23.8266 155.314 23.9848 154.657 24.329C145.75 19.6556 134.959 17.973 124.731 18.4569C116.589 18.4554 110.779 20.3196 106.84 23.2214C102.099 26.713 99.9637 31.7324 99.8401 37.1759C99.6935 43.6351 102.429 50.7016 106.917 56.293C111.212 61.6448 117.087 65.6123 123.462 66.5277C130.698 67.921 138.072 66.5731 144.483 63.2759C151.058 59.8942 156.613 54.463 159.952 47.8864ZM231.354 51.5305C235.481 46.8 238.225 40.6459 238.643 34.5484C239.023 28.9992 237.491 23.5025 233.256 18.9599C229.416 15.7629 222.63 15.7099 215.492 17.4903C206.262 19.7923 196.713 24.9369 193.53 28.2595C192.78 28.6408 192.084 29.3048 191.478 30.7292L191.474 31.2369C190.509 35.5505 191.082 39.9278 192.75 43.9659C194.562 48.3524 197.669 52.3344 201.458 55.3726C206.492 59.3948 211.747 60.6261 216.666 59.9766C222.237 59.2409 227.418 56.0424 231.354 51.5305Z" fill="white"/>
<path fill-rule="evenodd" clip-rule="evenodd" d="M191.763 16.4729C211.32 8.7279 232.226 3.14555 253.391 5.35755C255.141 4.71172 257.314 5.2559 258.089 7.65659C265.628 29.9318 248.817 23.7371 249.043 32.0641C250.805 78.7529 186.107 86.7262 178.833 39.0665L178.699 39.1432V39.1432C168.233 48.6163 166.028 64.0316 153.699 72.2702C128.827 89.9133 93.5699 75.9346 89.0415 44.5259L88.9427 44.101C87.4227 37.691 85.6052 36.1016 78.1083 36.1332L76.924 35.905C57.4453 32.1826 31.5067 28.8375 13.566 41.6389C9.66385 43.8399 9.4806 49.4983 6.18345 51.9569C2.57126 52.6374 0.345969 48.4234 0.101224 45.5071C-0.471103 16.434 53.1657 14.3425 77.1871 16.8376C77.6458 16.3768 78.6254 16.434 78.9555 17.008C100.68 7.88486 125.155 9.14729 148.416 12.9839C162.825 15.6896 177.057 21.8526 191.763 16.4729ZM251.443 10.7255C239.707 10.1564 228.852 10.7791 217.333 13.5152C211.262 14.9359 206.603 16.7322 200.792 18.8924C164.546 34.4683 160.365 6.7818 79.1172 17.6348C80.1683 22.0016 80.3616 26.3252 80.4181 30.4278C97.0074 29.7794 93.1016 45.1439 99.3167 55.9359L99.5082 56.2615C108.566 72.0072 129.941 79.3517 147.183 68.9077C161.567 60.7755 162.971 40.1499 177.293 31.9642C189.707 31.4906 184.748 47.7428 191.505 54.4226C201.015 66.731 221.229 68.4518 233.153 56.8744C238.748 51.3036 241.721 44.2306 241.886 36.6316C242.198 31.7767 241.339 26.8432 245.123 23.4284C247.776 20.8147 252.489 21.6869 253.03 17.7359C253.374 15.3997 252.372 12.8657 251.443 10.7255ZM123.9 17.0887C135.558 16.5317 147.893 18.4954 157.903 24.0412C165.313 18.3219 167.128 41.0518 162.21 47.6263C155.125 61.6884 138.628 70.9339 122.744 67.8636C97.9648 64.3807 80.6996 17.0467 123.9 17.0887ZM157.191 25.5658L156.557 25.4759C145.818 23.8865 116.577 16.5234 105.299 28.1448C94.354 47.4216 122.121 79.8005 151.017 54.0101C159.059 46.0685 162.176 36.4383 157.191 25.5658ZM191.223 28.0291C196.784 21.642 225.127 8.70479 235.007 17.0068C253.038 36.6074 224.443 76.2536 200.492 56.9378C192.514 50.4814 187.266 40.1945 189.563 30.2331L189.566 29.8156C189.571 29.6642 189.6 29.6987 189.767 29.51C190.063 28.7571 190.595 28.2762 191.223 28.0291ZM234.757 39.9093C240.838 7.9181 215.423 20.0798 194.55 28.6186C195.67 29.6114 195.665 30.967 195.343 32.0809C193.142 55.8176 222.886 69.2685 234.757 39.9093ZM76.7656 18.3923C68.0596 21.2519 10.4749 16.1377 5.15513 42.3201C10.7705 33.4959 22.4002 29.994 32.8552 28.0937C47.0762 25.5086 61.2193 27.0053 75.2407 29.7256L75.5302 26.911C75.8412 23.9255 76.1691 21.1325 76.7656 18.3923Z" fill="black"/>
</svg>
