<svg width="118" height="123" viewBox="0 0 118 123" fill="none" xmlns="http://www.w3.org/2000/svg">
<path fill-rule="evenodd" clip-rule="evenodd" d="M58.0138 0.474385C60.1413 -0.114501 62.5869 -0.0459559 64.7695 0.10459C66.9861 0.257669 69.3646 0.520134 71.4445 1.34774C73.2527 2.06723 74.7774 3.27713 75.7065 5.01086C76.4703 6.43606 76.8286 7.99914 77.053 9.58676C77.1449 10.2365 77.2217 10.8877 77.2948 11.5396L77.4451 12.8958C77.504 13.4144 77.5554 13.8032 77.6585 14.3817C77.944 15.982 78.3415 17.3191 79.2289 18.4834C81.378 21.3021 84.8873 22.2456 88.0785 23.4487C90.1206 24.2185 91.7377 25.6033 92.1863 27.8286C92.6192 29.9754 109.077 47.9857 110.692 49.504L110.737 49.5449C111.99 50.6733 111.843 52.7944 112.018 54.343C112.206 56.0035 112.385 57.6652 112.555 59.3273C112.899 62.7044 113.207 66.0851 113.476 69.4687C114.53 82.7018 115.009 95.981 114.907 109.255L114.901 110.007C114.885 111.691 114.897 113.384 114.822 115.067C114.749 116.684 114.26 118.303 112.761 119.148C111.372 119.931 109.616 119.862 108.065 119.94L107.972 119.945C106.307 120.036 104.641 120.111 102.974 120.173C96.201 120.423 89.4217 120.45 82.6446 120.419C69.2 120.357 55.7419 120.062 42.3099 120.814C38.886 121.006 27.9704 119.84 24.5572 120.173C21.2949 120.49 24.094 122.09 22.0786 121.984C15.4508 121.638 9.164 120.159 2.81385 118.378C2.02059 118.155 1.41398 117.385 1.42395 116.553C1.54189 107.413 1.79992 98.2753 2.20312 89.1435C2.56231 81.0089 3.03563 72.8795 3.62278 64.7582C3.87806 61.2282 4.15479 57.6996 4.45298 54.1729L4.58209 52.6615C4.75052 50.7125 4.8474 48.7277 5.23066 46.8058C5.60979 44.9049 6.46985 43.2565 7.71696 41.7836C8.836 40.4623 21.5058 30.1181 24.5572 28.1598C27.4779 26.2852 30.5448 24.7037 33.5432 22.9663C34.7907 22.2435 35.9887 22.5036 37.0544 21.6164C37.6162 21.1487 45.7683 17.9972 47.9677 16.9573L48.0325 16.9265C49.7159 16.1188 51.2651 15.2431 52.4283 13.8465C52.8182 13.3784 53.5829 10.4291 53.5844 9.48671C53.587 7.80332 53.4595 6.03002 53.9673 4.39934C54.5745 2.44937 56.0382 1.02116 58.0138 0.474385ZM61.621 43.8797L48.5947 69.2477H57.0651L50.9935 83.3426H64.3272L59.5973 103.085L86.6461 69.2477H76.496L86.6461 55.9252H79.6062L86.6461 44.6427L61.621 43.8797Z" fill="white"/>
<path fill-rule="evenodd" clip-rule="evenodd" d="M105.379 58.1449C105.349 58.1748 105.317 58.205 105.287 58.2367C105.322 58.1876 105.352 58.1368 105.379 58.0863V58.1449ZM80.0626 50.7551C78.8927 52.2497 77.6548 55.2907 76.5182 56.812C76.3551 57.0303 76.1952 57.2489 76.0369 57.4688C75.5652 58.1289 76.1952 59.1389 76.9709 59.0963C78.5207 59.0138 80.0689 58.8984 81.6171 58.7813C78.4368 62.3255 75.7963 66.728 72.8756 70.4828C72.6777 70.7345 72.483 70.988 72.2883 71.2411C71.549 72.2052 72.2899 72.6422 73.2999 72.3825C73.5088 72.3288 73.7178 72.275 73.9267 72.2227C75.3958 71.846 76.8633 71.4692 78.3323 71.094C79.1444 70.8849 79.9612 70.627 80.7844 70.4672C81.1232 70.4023 81.4477 70.4561 81.7675 70.4735C81.6139 70.7076 81.3986 71.1303 81.3559 71.1952C80.8762 71.9424 80.3934 72.6864 79.9074 73.4273C78.9608 74.868 78.0094 76.3068 77.0231 77.7204C73.1764 83.2325 69.0273 88.4947 64.9146 93.8057C63.8793 95.1416 62.8297 96.4636 61.7628 97.7728C61.7675 97.7647 61.7707 97.7568 61.7754 97.749C62.7363 95.8777 63.6972 94.0083 64.6581 92.137C66.4849 88.5817 68.2943 85.0168 70.1401 81.4708C70.2351 81.2856 70.3317 81.1019 70.4283 80.9167C70.8114 80.182 70.1829 79.4192 69.3961 79.5741C65.5579 80.3304 61.7569 81.2596 58.0031 82.36C57.8342 82.5399 57.5858 82.5927 57.364 82.5491C57.2131 82.5942 57.0617 82.6376 56.9108 82.6834C56.9565 82.5885 57.0039 82.4947 57.0499 82.4002C56.8965 82.2669 56.8202 82.0606 56.92 81.8031C59.08 76.2295 62.0415 70.849 65.5505 65.9213C65.4093 65.924 65.2684 65.9261 65.1267 65.9302C61.2752 66.0347 57.4965 66.5872 53.7843 67.6365C53.7669 67.293 53.9743 66.7613 54.0867 66.508C54.5362 65.4963 55.0523 64.5085 55.5351 63.5128C56.5229 61.4675 57.5108 59.424 58.4986 57.3785C59.4642 55.3808 60.4219 53.3768 61.3306 51.3505C61.8071 50.2882 62.2836 49.2244 62.7585 48.1607C63.1463 47.2947 63.4519 46.4224 63.7732 45.5361C64.7167 45.8131 76.8316 45.8731 79.776 46.0775C80.4979 46.1281 81.2213 46.174 81.9448 46.2136C82.521 46.2468 83.3331 46.3735 83.7304 45.8527L83.8808 45.9792C82.5732 47.5432 81.3195 49.1501 80.0626 50.7551V50.7551ZM32.7638 21.6972C32.824 21.6703 32.8825 21.6434 32.9411 21.6165C32.9712 21.6592 33.0076 21.6988 33.0456 21.7384C33.1406 21.8349 33.234 21.9393 33.3321 22.0344C33.1422 21.9234 32.9522 21.811 32.7638 21.6972V21.6972ZM117.43 110.662C117.321 108.355 117.199 106.049 117.069 103.742C116.813 99.2339 116.549 94.7254 116.196 90.2233C115.478 81.1003 114.81 71.9803 113.736 62.8906C113.284 59.0802 112.654 55.2985 112.023 51.515C112.103 51.4421 112.186 51.3693 112.266 51.2982C112.179 52.3334 113.585 52.9889 114.282 51.9566C114.334 51.8792 114.385 51.8016 114.435 51.7209C115.038 50.7458 116.428 45.9617 116.332 45.5564C116.158 44.8267 115.673 44.1778 115.295 43.5351C114.964 42.9729 114.63 42.411 114.291 41.8539C113.615 40.7377 112.919 39.6329 112.189 38.5516C110.677 36.3133 109.024 34.1636 107.077 32.2845C105.062 30.3374 102.749 28.7368 100.361 27.2853C99.2128 26.5886 98.0287 25.9572 96.8225 25.3681C95.632 24.7887 94.3292 24.1476 93.047 23.8183C92.9741 23.7993 92.8997 23.9008 92.9662 23.9546C93.3066 24.2237 93.6627 24.4769 94.0253 24.7207C93.0438 24.3805 92.0322 24.1349 91.0128 24.0479C89.0387 23.3545 87.041 22.7199 85.0764 21.9963C83.1451 21.2839 81.2423 20.483 79.9585 18.7955C78.8615 17.3532 78.1681 15.5883 77.6346 13.8692C77.0489 11.9743 76.8162 10.0048 76.2748 8.10679C76.232 7.95324 75.9803 7.93582 75.9471 8.10679C75.5608 10.0982 75.5783 12.3368 75.7983 14.3471C76.0294 16.4557 76.6231 18.5248 77.9148 20.2393C79.4155 22.2323 81.4513 23.3418 83.7419 24.2267C85.5893 24.9424 87.4605 25.6705 89.3522 26.31C89.1052 26.4716 88.8551 26.6329 88.5971 26.7865C87.5713 27.3961 86.5043 27.9375 85.4136 28.4235C83.4222 29.3114 81.3246 29.9765 79.2145 30.5163C75.287 31.5166 71.2598 32.0249 67.2104 32.0914C59.1084 32.2259 50.9163 30.5289 43.5061 27.2521C41.4197 26.3292 39.3824 25.3143 37.3656 24.2491C36.7355 23.9165 36.1023 23.5809 35.4723 23.2358C35.5245 23.2328 35.5783 23.228 35.6306 23.2231C37.0379 23.0903 38.4278 22.8196 39.7892 22.4365C42.5769 21.6497 45.2491 20.4229 47.8737 19.2149C50.0994 18.1907 52.3917 17.024 53.7515 14.8902C54.4781 13.7489 54.8121 12.4096 55.0828 11.0989C55.3852 9.63932 55.7414 8.17328 55.9614 6.69964C56.039 6.18357 55.9234 5.48546 55.3693 5.24167C55.1477 5.14495 54.9657 5.0658 54.7171 5.0658C54.1678 5.0658 53.6043 5.46488 53.4729 6.0126C53.1484 7.37876 52.9521 8.7829 52.6972 10.1631C52.4772 11.3567 52.2761 12.6027 51.6318 13.6521C50.5063 15.4902 48.2995 16.4303 46.4347 17.3249C44.0713 18.4584 41.7062 19.5632 39.251 20.483C38.1698 20.8881 37.0696 21.2556 35.9535 21.5562C35.9978 21.2825 35.9599 20.9942 35.7984 20.7773C35.5293 20.4196 35.2237 20.1821 34.8771 19.9084C34.5003 19.6106 33.9937 19.4557 33.5489 19.5871C33.5489 19.5885 33.5473 19.5871 33.5473 19.5871C33.3669 19.5475 33.1674 19.5632 32.9616 19.6565C32.3252 19.948 31.6904 20.2423 31.0556 20.5416C21.9232 24.838 13.0503 29.8845 6.33035 37.5701C5.36153 38.6782 4.45446 39.8435 3.60437 41.0448C2.77803 42.2117 1.7554 43.4781 1.52744 44.9248C1.50845 45.0453 1.68416 45.1007 1.71424 44.9771C1.76806 44.7538 1.84088 44.5354 1.93112 44.3233C1.74274 44.982 1.75382 45.6817 2.01976 46.3701C2.33479 47.1806 2.91259 47.7174 3.64237 47.931C2.90943 51.1431 2.4171 54.3978 2.02135 57.6888C1.45304 62.4299 1.04937 67.1823 0.745429 71.9471C0.137546 81.4565 -0.133151 91.0132 0.0631441 100.54C0.11855 103.232 0.210366 105.925 0.349672 108.616C0.419325 109.962 0.49531 111.306 0.582377 112.651C0.66786 113.975 0.598207 115.433 1.75223 116.131C1.76648 116.183 1.78231 116.234 1.79656 116.286C2.07675 117.263 3.32576 116.95 3.44291 116.063C3.44449 116.054 3.44607 116.042 3.44765 116.033C4.39114 115.313 4.24867 114.113 4.17901 112.962C4.10461 111.719 4.02546 110.478 3.95897 109.237C3.83233 106.856 3.72468 104.475 3.62812 102.093C3.43974 97.3816 3.33368 92.6643 3.29885 87.9499C3.2292 78.5198 3.77376 69.104 4.41963 59.7009C4.69033 55.767 5.00694 51.8506 5.1035 47.9183C5.60849 47.6555 5.76362 46.9085 5.51034 46.4051C11.491 50.486 17.0411 55.3649 21.4973 61.0354C22.2413 61.9819 22.9521 62.9571 23.6328 63.9498C23.8544 64.2726 24.065 64.6083 24.2771 64.9438C24.0713 65.8793 23.9114 66.8307 23.7025 67.7283C23.2719 69.5822 23.0898 71.5054 22.8429 73.3894C22.3411 77.2155 21.9881 81.0764 21.6889 84.9231C21.1 92.5201 20.6631 100.116 20.5253 107.735C20.4494 112.044 20.348 116.379 20.538 120.687C20.3971 121.529 21.1554 122.352 21.9485 122.458C22.6434 122.552 23.2925 122.191 23.5964 121.61C25.762 121.879 27.9846 122.003 30.1359 122.018C33.0344 122.039 35.9329 122.036 38.8315 121.974C44.6301 121.847 50.4271 121.699 56.2242 121.526C67.8183 121.184 79.4123 120.841 91.008 120.497C94.2231 120.402 97.4383 120.307 100.653 120.212C102.103 120.169 103.911 120.587 105.054 119.468C105.251 119.275 105.402 119.048 105.51 118.806C105.852 118.892 106.272 118.808 106.496 118.543C106.916 118.048 107.225 117.589 107.209 116.902C107.194 116.259 107.017 115.582 106.925 114.945C106.751 113.75 106.583 112.555 106.424 111.358C106.109 108.993 105.814 106.625 105.543 104.255C104.989 99.4096 104.486 94.5527 104.093 89.6912C103.314 80.0777 103.094 70.4133 103.121 60.7695C103.125 59.9067 103.129 59.044 103.134 58.1811C103.17 58.2271 103.21 58.2697 103.253 58.3063C103.288 58.3362 103.322 58.3663 103.357 58.3981C103.762 58.7543 104.437 58.9379 104.923 58.6007C105.52 58.2143 105.931 57.6349 106.397 57.1111C106.886 56.5618 107.389 56.0266 107.897 55.4948C108.882 54.4659 109.9 53.4795 110.938 52.5043C111.022 52.4269 111.106 52.3478 111.19 52.2716C111.196 55.3411 111.193 58.4092 111.276 61.4771C111.399 66.0346 111.646 70.5874 111.872 75.1386C112.322 84.1506 112.787 93.1596 113.235 102.17C113.36 104.686 113.479 107.203 113.604 109.718C113.667 110.977 113.729 112.235 113.789 113.494C113.821 114.174 113.853 114.857 113.884 115.537C113.919 116.269 113.873 117.051 114.12 117.746C114.682 119.335 117.111 119.56 117.578 117.746C117.87 116.608 117.646 115.29 117.593 114.122C117.54 112.97 117.486 111.816 117.43 110.662V110.662Z" fill="black"/>
</svg>
