<svg width="306" height="295" viewBox="0 0 306 295" fill="none" xmlns="http://www.w3.org/2000/svg">
<path fill-rule="evenodd" clip-rule="evenodd" d="M28.2274 288.253C30.247 291.322 34.2193 290.85 35.9248 288.473C55.3447 292.998 75.2537 291.215 94.9436 290.106C150.429 287.848 206.226 294.925 261.487 287.522C267.349 286.349 274.172 286.91 278.968 282.844C286.64 273.854 284.988 260.204 283.766 249.255C273.97 187.53 260.043 125.24 253.096 63.1192C252.708 57.202 255.147 49.8497 257.333 44.2872C257.873 43.2523 261.286 42.2382 263.057 41.0444C268.492 37.1432 267.611 30.1521 262.899 26.0499C247.644 15.2971 226.408 19.0545 210.226 23.0217C207.124 11.3739 203.638 3.71313 197.734 2.95447C186.495 1.51048 159.233 -2.90211 150.835 2.95447C146.818 5.75625 144.239 15.6286 141.347 20.438C120.257 20.0634 77.4528 -8.15301 68.6528 23.621C61.5032 24.1147 54.4217 30.3567 55.7893 37.8472C46.5168 46.0409 53.8303 58.3268 53.702 68.5255C52.483 90.164 40.7742 109.516 35.903 130.419C24.7683 170.96 12.1656 244.704 25.9758 284.277C25.6786 284.122 25.0295 284.355 25.45 284.684C27.0137 285.126 27.2171 287.095 28.2274 288.253Z" fill="white"/>
<path fill-rule="evenodd" clip-rule="evenodd" d="M270.698 277.944C268.108 257.15 266.307 232.047 266.286 211.08C266.284 209.105 269.348 209.109 269.35 211.08C269.371 232.047 271.172 257.15 273.762 277.944C274.006 279.899 270.939 279.874 270.698 277.944M251.511 149.012C247.509 151.459 242.253 149.762 238.292 148.141C236.489 147.403 237.283 144.44 239.106 145.186C242.121 146.42 246.527 148.236 249.708 146.516C252.884 144.799 253.027 140.075 253.051 136.958C253.065 134.984 256.129 134.985 256.114 136.958C256.082 141.198 255.515 146.562 251.511 149.012M244.103 244.169C240.065 242.099 236.62 239.27 233.847 235.678C232.642 234.116 235.304 232.592 236.493 234.131C238.933 237.293 242.113 239.71 245.649 241.523C247.407 242.424 245.854 245.067 244.103 244.169M224.695 137.237C217.766 165 213.117 193.261 210.838 221.786C210.374 227.577 210.049 233.36 209.865 239.147C209.681 240.656 209.505 242.169 209.34 243.682C208.716 249.403 208.237 255.217 208.28 260.977C208.299 263.563 208.379 266.136 208.555 268.713C208.249 267.852 207.965 266.986 207.69 266.125C207.127 264.359 206.755 262.528 206.181 260.774C205.706 259.323 205.093 257.933 204.522 256.527V256.523C204.695 250.767 204.304 244.957 204.105 239.227C203.848 231.805 203.53 224.39 203.366 216.964C203.036 202.112 203.201 187.248 203.737 172.404C204.813 142.492 207.533 112.722 210.275 82.9329C211.037 74.6488 211.857 66.3685 212.423 58.0688C212.994 49.6817 213.224 41.2788 213.289 32.8688C213.293 32.2633 212.374 32.1028 212.205 32.6884C212.056 30.693 211.792 28.7015 211.351 26.775C217.958 30.9879 224.924 34.6301 231.753 38.46C235.349 40.4784 238.93 42.5312 242.638 44.3389C244.675 45.3343 246.732 46.2501 248.831 47.1156C251.006 48.0118 253.086 49.245 255.479 48.6204C255.686 48.5672 255.881 48.4906 256.069 48.391C255.797 48.9076 255.525 49.4212 255.265 49.9425C254.361 51.7383 253.499 53.5422 252.664 55.3614C252.442 55.5261 252.247 55.7524 252.094 56.047C251.688 56.8397 251.293 57.6402 250.91 58.4517C250.834 58.3794 250.757 58.3066 250.68 58.2338C250.359 57.9313 249.914 58.3866 250.198 58.7164C250.328 58.8654 250.454 59.0113 250.581 59.1607C248.084 64.534 246.054 70.1831 243.963 75.6986C241.393 82.4771 238.957 89.3058 236.663 96.1805C232.14 109.704 228.149 123.403 224.695 137.237M125.641 237.992C112.872 244.831 100.94 253.003 89.4629 261.818C87.8984 263.019 86.3741 260.356 87.9164 259.172C99.3931 250.358 111.326 242.185 124.095 235.346C125.835 234.415 127.38 237.061 125.641 237.992M82.5127 157.902C81.8489 157.853 81.204 157.468 81.0355 156.778C80.001 152.543 79.191 147.929 80.1531 143.609C80.582 141.682 83.5352 142.502 83.1074 144.424C82.3487 147.83 82.9516 151.512 83.7394 154.909C94.8763 155.396 105.864 151.4 116.519 148.716C118.435 148.234 119.244 151.189 117.334 151.67C106.031 154.517 94.3398 158.778 82.5127 157.902M304.226 270.871C304.238 270.844 304.249 270.813 304.257 270.786C304.912 268.803 304.927 266.497 305 264.418C305.126 260.718 304.992 257.01 304.659 253.322C303.954 245.559 302.438 237.922 300.626 230.35C297.037 215.352 291.967 200.761 289.213 185.56C283.809 155.721 285.092 124.653 274.487 95.8714C270.079 83.9064 263.782 72.4052 255.226 62.8994C255.851 60.9997 256.46 59.0963 257.053 57.1852C258.091 53.8608 259.152 50.4292 259.792 47.0053C259.807 46.9134 259.826 46.8176 259.838 46.7219C263.48 45.1516 266.793 42.1911 267.36 38.254C267.605 36.5535 267.321 34.6692 266.586 33.0261C268.087 31.6397 269.052 29.8397 268.823 27.4268C268.394 22.8846 263.089 21.716 259.397 20.8279C255.2 19.8206 250.845 19.541 246.552 20.016C244.384 20.2534 242.239 20.6517 240.144 21.2492C238.325 21.7662 236.345 22.2986 234.886 23.5471C234.713 23.6927 234.855 23.9761 235.062 23.9761C238.015 23.965 240.956 22.8807 243.94 22.7386C247.065 22.5935 250.182 22.8501 253.246 23.4935C256.241 24.1216 259.229 25.0408 261.952 26.4617C262.718 26.8638 263.84 27.1357 262.94 27.9477C262.281 28.5413 260.987 28.5915 260.14 28.6792C258.267 28.8745 256.651 29.9699 256.414 31.9691C256.203 33.7347 257.256 35.7339 259.133 36.1322C259.236 36.1555 259.332 36.182 259.416 36.2164C259.466 36.3122 259.543 36.3926 259.535 36.2624C259.535 36.2624 259.539 36.2586 259.539 36.2624C259.585 36.542 259.6 36.6527 259.6 36.6722C259.589 36.6492 259.57 36.5535 259.554 36.4769C259.566 36.5458 259.589 36.6569 259.619 36.8216C259.577 36.6416 259.612 37.0824 259.577 37.1509C258.581 38.9893 255.636 39.5067 253.92 40.2991C253.587 40.4519 253.3 40.6323 253.055 40.8349C252.649 40.6936 252.235 40.5519 251.818 40.3949C249.761 39.6251 247.708 38.8782 245.625 38.1846C241.603 36.8407 237.532 35.642 233.511 34.2938C225.897 31.7431 218.536 28.5222 211.064 25.6038C210.826 24.7229 210.551 23.8612 210.225 23.0224C210.16 22.8466 209.846 22.7888 209.811 23.0224C209.697 23.7654 209.605 24.5123 209.528 25.2629C209.497 25.3319 209.49 25.4085 209.505 25.4812C209.072 29.8473 209.187 34.3168 208.965 38.6791C208.689 44.1175 207.919 49.5177 207.701 54.96V55.0596C206.897 59.7052 206.169 64.3662 205.51 69.0425C204.771 68.8127 203.925 68.8587 203.059 69.3221C196.939 72.589 190.061 74.4082 183.14 74.8142C179.655 75.0168 176.204 74.9027 172.738 74.5001C170.459 74.2397 168.215 73.7648 165.967 73.3129C167.15 68.3532 168.422 63.4164 169.858 58.5298C171.041 54.5119 172.359 50.5135 173.987 46.6491C175.63 42.7464 177.675 39.0199 179.578 35.236C180.455 33.4857 179.421 30.8086 177.142 30.9925C176.468 31.0461 175.794 31.0882 175.116 31.1188C168.521 31.4333 161.662 30.6979 155.151 30.0426C147.74 29.292 140.23 28.5141 132.884 27.2928C132.34 27.2047 132.118 27.9439 132.654 28.1239C136.139 29.2958 139.583 30.6206 143.156 31.498C146.833 32.4057 150.532 33.2329 154.263 33.8802C157.836 34.4972 161.424 35.0139 165.025 35.4505C167.372 35.7377 169.747 35.8832 172.11 36.0747C168.927 41.1608 166.733 46.8977 164.822 52.5468C162.367 59.801 160.563 67.2655 158.797 74.7146C155.021 90.6815 151.907 106.809 149.471 123.037C147.725 134.672 146.312 146.353 145.251 158.065C144.937 154.507 144.554 150.96 144.121 147.418C142.673 135.656 140.559 123.971 137.733 112.462C137.985 112.018 138.104 111.486 138.02 110.968C137.511 107.805 136.17 105.051 134.994 102.118C133.826 98.0196 132.566 93.9484 131.21 89.9078C129.671 84.4043 127.943 78.985 125.734 73.692C124.045 69.6592 122.118 65.7293 119.973 61.9189C117.411 56.5915 114.596 51.3794 111.506 46.3963C111.345 45.9329 111.084 45.5001 110.713 45.1363C110.15 44.2477 109.579 43.3707 108.997 42.5013C108.618 41.9345 107.53 42.2792 107.817 42.9992C107.951 43.3366 108.085 43.6733 108.223 44.0068C95.6344 40.8583 83.2906 45.6725 71.2992 49.2266C68.2736 50.1266 65.2173 50.9386 62.1151 51.5246C59.6754 51.9842 56.8336 52.5433 54.4017 52.0374C52.7739 51.7007 52.0539 50.9616 52.8467 49.2228C53.6663 47.4231 55.903 46.2393 57.8447 45.4431C58.5762 45.2856 59.2963 45.0061 59.9895 44.5848C61.6057 43.6043 62.3142 41.5592 61.5521 39.8166C60.8589 38.2425 58.8367 36.8867 57.0481 37.6067C56.7915 37.7101 56.5387 37.8097 56.286 37.9093C56.2592 37.871 56.2285 37.8173 56.2017 37.7407C55.9451 37.0399 55.834 37.879 55.9451 36.8752C56.1289 35.236 57.8639 33.7462 59.0512 32.8078C62.004 30.4678 66.2705 28.7366 70.0813 29.6214C70.3685 29.6865 70.6558 29.7669 70.9392 29.8665C74.8648 31.2261 76.7759 25.5731 73.6393 23.4667C73.4478 23.3403 73.2065 23.1795 72.9422 22.9918C71.6362 22.0841 69.7251 20.556 70.246 19.1776C70.8894 17.4652 74.6848 16.481 76.121 15.8988C81.3144 13.7924 86.9252 12.5974 92.5245 12.3523C98.1583 12.1072 103.865 12.7277 109.299 14.2477C111.965 14.9911 114.703 16.1209 117.224 17.2626C119.487 18.2848 124.412 19.6368 124.726 22.5016C124.795 23.1339 125.695 23.348 125.891 22.6586C127.434 17.1588 121.444 13.6085 117.492 11.3374C114.899 9.84335 111.957 8.91307 109.112 7.99772C106.385 7.11684 103.601 6.46959 100.759 6.07856C94.6578 5.24402 88.484 5.35126 82.4327 6.52321C76.9215 7.59213 70.7898 9.41479 66.3356 12.9613C63.6011 15.1367 62.364 18.5989 63.4632 21.9769C63.5015 22.0879 63.5398 22.2028 63.5781 22.3139C58.6567 23.1948 53.9995 26.0136 50.8858 29.9431C48.3274 33.1717 46.987 37.6641 49.2772 41.4217C49.1815 41.4902 49.0857 41.563 48.9938 41.6396C46.8108 43.386 45.1869 45.9218 44.7043 48.6943C43.7584 54.1634 47.0636 57.9894 51.6862 59.4525C50.5411 60.5712 49.4419 61.7581 48.3657 62.9453C45.9567 65.6071 43.6549 68.506 41.6251 71.463C37.5118 77.453 33.9959 83.9753 30.9205 90.5474C24.5974 104.044 20.6104 118.571 18.4963 133.301C17.4316 140.723 16.7192 148.184 16.4473 155.675C16.1333 164.216 16.4511 172.76 16.2865 181.305C16.1256 189.516 15.2179 197.528 13.3834 205.533C11.6255 213.189 9.28157 220.691 7.15981 228.248C4.76612 236.758 2.13114 245.23 0.867277 254.004C0.227683 258.469 -0.231905 262.947 0.124276 267.462C0.484287 272.062 2.15412 275.995 3.69374 280.273C4.08439 281.365 5.27549 281.805 6.22914 281.571C6.44361 283.62 7.21726 285.62 8.37006 287.351C10.8174 291.02 14.586 293.36 18.9023 294.21C23.7663 295.164 28.7796 294.938 33.7049 294.762C39.0476 294.57 44.3941 294.398 49.7368 294.176C55.3304 293.945 60.9236 293.707 66.5172 293.469C66.3322 287.736 66.1116 282.005 65.8623 276.274C64.5137 245.297 62.3901 214.3 62.3338 183.282C62.2254 183.218 62.1189 183.143 62.017 183.044C59.4989 180.61 56.4074 179.012 53.5028 177.107C51.859 176.029 53.3955 173.377 55.0493 174.461C57.4981 176.067 60.05 177.494 62.3449 179.294C62.3583 176.065 62.3866 172.836 62.4506 169.607C62.4896 167.635 65.5536 167.635 65.5145 169.607C65.3222 179.339 65.3866 189.074 65.6068 198.805C66.3195 230.339 68.56 261.815 69.5803 293.338C84.5935 292.696 99.6075 292.05 114.623 291.502C126.837 291.058 139.05 290.614 151.264 290.17C153.826 290.078 155.266 288.247 155.58 285.853C156.154 281.449 155.074 276.895 152.631 273.192C152.378 272.809 152.079 272.468 151.746 272.177C151.804 269.538 151.911 266.895 151.762 264.257C151.539 260.227 151.206 256.198 150.915 252.173C150.325 244.111 149.87 236.034 149.69 227.953C149.322 211.791 149.59 195.613 150.505 179.474C152.34 147.23 156.61 115.193 163.6 83.6536C164.109 81.3557 164.622 79.0577 165.155 76.7636C170.589 79.5863 177.2 80.6008 183.14 80.6395C190.585 80.6854 197.866 78.9731 204.591 75.8601C204.545 76.2083 204.499 76.553 204.457 76.9015C202.581 91.8381 200.999 106.805 199.62 121.792C196.87 151.669 195.185 181.668 195.419 211.679C195.484 219.994 195.802 228.282 196.196 236.585C196.598 245.03 197.215 253.954 199.566 262.1C199.827 263 200.405 263.517 201.072 263.705C201.106 264.892 201.183 266.083 201.267 267.255C201.539 271.066 202.316 278.982 203.978 282.437C205.599 285.807 208.299 288.481 211.742 289.952C216.115 291.816 220.845 291.28 225.464 290.982C245.548 289.672 265.617 287.918 285.689 286.378C288.485 286.164 291.281 285.953 294.073 285.735C296.559 285.543 299.129 285.374 301.335 284.084C303.843 282.617 305.8 275.413 304.935 272.433C304.778 271.889 304.54 271.353 304.226 270.871" fill="black"/>
</svg>
