<svg width="185" height="185" viewBox="0 0 185 185" fill="none" xmlns="http://www.w3.org/2000/svg">
<path fill-rule="evenodd" clip-rule="evenodd" d="M183.336 164.867C182.953 157.79 182.483 150.719 181.92 143.654C180.798 129.581 179.328 115.497 176.884 101.586C174.472 87.8603 171.096 74.5137 166.233 61.4346C163.977 55.3665 161.534 50.1899 157.99 44.7351C154.638 39.5777 150.361 36.083 145.033 32.9697C140.233 30.1646 134.656 25.2978 130.051 22.1565C128.129 20.8453 124.174 20.9327 122.856 18.9928C121.13 16.4527 122.249 12.5647 120.509 10.0329C118.52 7.13805 115.734 4.88922 112.592 3.25555C109.162 0.944865 105.123 -0.101104 101.073 0.0428957C95.1003 -0.317462 89.0852 1.57436 85.2509 6.41113C83.3375 8.82497 82.2203 11.6099 82.0657 14.6936C82.0254 15.4958 82.2844 16.1281 82.7106 16.5847C82.4579 16.921 82.2064 17.2574 81.9565 17.5958C81.1722 16.44 79.339 15.8258 78.1174 16.6982C74.1208 19.5526 69.8014 21.8222 65.2424 23.486C64.1758 22.9838 62.8846 23.2164 61.9709 24.0362C61.6001 24.3686 61.2067 24.653 60.7956 24.8944C59.1052 25.3503 57.3887 25.7312 55.6467 26.0257C55.1014 26.1176 54.6394 26.4257 54.289 26.841C53.7698 26.3581 53.0563 26.1262 52.2595 26.4285C43.0588 29.9182 34.3701 35.3393 27.7658 42.684C20.4489 50.8209 16.6059 60.9426 13.6802 71.3125C10.5131 82.5381 8.48911 94.043 6.78914 105.567C5.06661 117.244 3.37 128.967 2.18484 140.711C1.51786 147.32 1.26345 153.989 1.56538 160.628C1.71587 163.945 2.02044 167.252 2.50549 170.538C2.61853 171.307 2.73686 172.192 2.92742 173.076C2.34829 172.964 1.65851 173.451 1.77587 174.231C2.59333 179.662 9.19209 181.244 13.7431 181.869C21.1874 182.892 28.6704 183.459 36.1862 183.502C43.5719 183.545 50.9565 183.074 58.3269 182.651C65.8832 182.218 73.4394 181.783 80.9955 181.342C111.27 179.576 141.546 177.829 171.82 176.063C174.586 175.901 177.744 175.683 180.113 174.087C183.361 171.898 183.528 168.421 183.336 164.867V164.867Z" fill="white"/>
<path fill-rule="evenodd" clip-rule="evenodd" d="M35.7503 104.126C35.6452 103.93 35.889 103.754 36.0508 103.895C39.726 107.104 41.6502 112.258 42.0536 117.021C42.4811 122.073 41.8751 127.303 41.6435 132.352C41.3857 137.976 41.1541 143.603 40.8394 149.225C40.52 154.928 40.1758 160.63 39.8808 166.335L39.2172 179.168V179.168C39.1467 180.535 39.2995 182.217 38.772 183.494C37.9545 185.473 35.5263 185.166 35.016 183.512L35.0001 183.458L34.9535 183.494C34.5032 182.003 34.8402 180.233 34.9165 178.692L35.6118 164.671V164.671C36.103 154.761 36.5412 144.85 37.0688 134.942L37.2482 131.639C37.4949 127.193 37.684 122.758 37.8359 118.313L37.8852 116.831C38.0294 112.368 37.9149 108.155 35.7503 104.126ZM124.843 21.8536C126.891 21.6602 128.437 22.3358 130.296 23.0474C131.106 23.3572 131.873 23.7151 132.649 24.0858C133.622 24.5498 134.248 25.3702 134.846 26.2376L135.167 26.705C137.661 30.3406 139.338 34.5349 141.231 38.4932C143.445 43.1234 145.682 47.7435 147.849 52.3957L148.918 54.6877C149.453 55.8338 149.986 56.9806 150.511 58.131L151.418 60.1331C152.33 62.1636 153.147 64.3117 151.848 66.4064C150.64 68.3546 148.498 69.862 146.803 71.3679C145.388 72.6245 143.973 73.8808 142.558 75.1369C145.483 78.0518 147.447 81.722 148.602 85.658C150.242 84.9781 152.244 84.8477 153.94 84.5535C156.314 84.1418 156.605 87.7177 154.364 87.674C152.71 87.6418 150.768 87.8099 149.071 87.4631C149.366 88.7565 149.58 90.0695 149.716 91.386C150.429 98.2864 148.871 105.227 147.245 111.903L147.112 112.451C145.346 119.678 143.673 126.923 142.175 134.209C140.674 141.511 139.324 148.843 138.126 156.2C136.906 163.688 136.043 171.218 135.116 178.746C134.975 179.885 134.255 180.861 132.989 180.861C131.935 180.861 130.73 179.883 130.863 178.746C131.82 170.548 133.177 162.393 134.526 154.252C136.849 140.231 139.772 126.332 143.136 112.524L143.723 110.119C145.237 103.883 146.609 97.4572 145.85 91.0244C145.232 85.7864 143.031 80.2014 138.681 76.948L138.548 76.8501C137.532 76.1086 137.141 74.6906 138.142 73.7141C138.779 73.0927 139.416 72.472 140.054 71.8516L143.884 68.1316L144.656 67.3802C145.3 66.7548 145.947 66.1332 146.613 65.5307C147.016 65.1663 148.109 64.4714 148.189 63.872C148.241 63.4807 147.776 62.7936 147.587 62.4333L146.723 60.6973V60.6973C146.232 59.7075 145.756 58.7104 145.277 57.7149C144.284 55.6525 143.276 53.5964 142.304 51.5238L136.467 39.0792V39.0792C134.821 35.5683 133.354 31.8618 131.201 28.6159L130.776 27.9833C130.422 27.4505 130.109 26.9377 129.885 26.2861C129.67 25.6593 129.4 24.971 129.002 24.4361C128.069 23.1807 126.287 22.4686 124.796 22.2056C124.58 22.1674 124.658 21.8713 124.843 21.8536ZM79.9493 18.5851C80.0789 18.5851 80.0986 18.7692 79.9791 18.805C78.18 19.3433 76.4608 20.2118 75.0582 21.4656C74.3872 22.0655 73.7115 22.7463 73.2973 23.5539C73.1387 23.863 73.051 24.1895 72.9867 24.5279L72.9661 24.6412C72.8592 25.2527 72.7063 25.5931 72.3939 26.0827L72.3404 26.1657C70.5578 28.9046 69.3086 31.9468 68.1664 34.9927L65.679 41.6343V41.6343L63.1932 48.2765C62.3923 50.4167 61.5909 52.5571 60.7898 54.6973C60.3472 55.8789 59.8922 57.0555 59.4373 58.2323C59.2405 58.7422 59.0289 59.2482 58.8489 59.7643C58.8241 59.8347 58.7454 60.2596 58.6864 60.3627L58.7065 60.3978V60.3978C59.2079 61.237 60.545 61.9381 61.3029 62.5478L63.9128 64.6471V64.6471C65.7735 66.1442 67.6821 67.5993 69.4869 69.1632C70.6207 70.1452 69.9153 71.9037 68.651 72.3138C66.5322 73.0006 64.4564 73.8225 62.3693 74.5996C61.5262 74.9134 60.6483 75.1866 59.8151 75.5326L59.3079 75.7507C59.1098 75.8394 59.205 75.8385 59.2129 76.2022C59.2209 76.5838 59.3296 76.9814 59.392 77.3564C60.095 81.5856 60.8402 85.8077 61.6267 90.0224C64.4089 104.926 67.7327 119.722 71.5236 134.403C73.4384 141.817 75.4919 149.195 77.4487 156.598C79.4007 163.982 81.969 171.259 84.4214 178.491C85.1133 180.53 81.8634 181.408 81.1885 179.377C78.3622 170.872 75.7766 162.293 73.1065 153.74C68.3625 138.543 64.6241 123.015 61.3178 107.45C59.679 99.7356 58.1802 91.9916 56.8227 84.2232C56.5657 82.7526 56.3136 81.281 56.0668 79.8086L55.707 77.6429C55.4603 76.0991 55.3199 74.4911 56.5258 73.2695C57.7034 72.077 59.7249 71.6545 61.2744 71.0952L61.3869 71.0541C62.3729 70.688 63.366 70.3352 64.3553 69.9715C62.898 68.8301 61.4587 67.6633 60.005 66.5225C58.8323 65.6021 57.6411 64.7004 56.4853 63.759C55.5322 62.9824 54.755 61.9854 54.6557 60.7226C54.5543 59.4319 55.1102 58.2343 55.5585 57.0506L55.6016 56.9361C56.0417 55.7542 56.4831 54.5731 56.9358 53.3958L59.7366 46.1077V46.1077C61.5165 41.4765 63.2213 36.8079 65.0934 32.2128C65.834 30.3943 66.6412 28.6044 67.595 26.8855C68.0548 26.0566 68.548 25.2454 69.084 24.4631C69.6845 23.5857 70.2295 23.158 71.16 22.6739C72.6478 21.9 73.8155 20.6023 75.3095 19.8044C76.776 19.0212 78.2846 18.6032 79.9493 18.5851ZM84.7795 10.3228C84.8364 10.2256 84.9871 10.2689 84.9891 10.3794C85.0279 12.681 84.4783 15.033 84.1402 17.3088C83.8005 19.5927 83.6916 22.0035 83.2003 24.2631C83.1901 24.3683 83.1696 24.4721 83.1407 24.5739L83.1172 24.6514V24.6514C82.9099 25.2844 82.3706 25.821 81.7089 25.9887C81.917 27.1359 82.1131 28.285 82.2779 29.4404C82.5611 31.4262 82.8196 33.415 83.0738 35.4044L83.3781 37.7919C83.6654 40.0419 83.9448 42.2929 84.221 44.5441C84.9235 44.8364 85.6404 45.0776 86.3746 45.2866C88.0655 45.768 89.7974 45.9638 91.5422 46.1341C95.0956 46.4809 98.6762 46.6415 102.242 46.8385L103.006 46.8813C107.015 47.1098 111.046 47.1504 115.045 46.7411C117.028 46.5381 118.995 46.1976 120.929 45.715C121.912 45.4697 122.867 45.1034 123.847 44.8636C124.173 44.7841 124.463 44.6007 124.789 44.4049C124.934 44.2229 125.137 44.0851 125.401 44.0319L125.473 44.0195V44.0195L125.544 44.0092L125.569 43.9982L125.567 44.0058C125.767 43.9789 125.958 43.9791 126.138 44.0035C126.209 42.2482 126.287 40.493 126.384 38.7383C126.645 34.0252 127.365 29.1087 126.404 24.4367C126.371 24.2795 126.586 24.2241 126.642 24.3712C128.529 29.3171 128.317 34.7254 128.412 39.9309C128.505 45.0215 128.449 50.1157 128.423 55.2075C128.79 55.3627 129.117 55.5731 129.376 55.8683C129.893 56.4581 130.042 57.4836 129.376 58.0529C129.08 58.3053 128.754 58.4806 128.407 58.6021C128.389 63.0255 128.357 67.4494 128.313 71.873C129.158 72.5228 129.237 74.0658 128.281 74.7069C128.121 89.0324 127.86 103.358 127.643 117.682L127.188 147.733V147.733C127.128 151.736 127.028 155.74 126.992 159.743L127.02 159.755V159.755L127.121 159.801C127.29 159.88 127.542 160.008 127.594 160.139C127.608 160.173 127.612 160.197 127.61 160.214C127.887 160.253 128.162 160.384 128.4 160.608C128.987 161.163 128.868 162 128.4 162.565L128.275 162.716V162.716C127.983 163.068 127.43 163.204 126.978 163.132C126.982 165.631 126.998 168.13 126.99 170.629C126.988 171.392 126.976 172.155 126.963 172.918L126.931 174.748C126.91 175.792 126.817 177.119 125.742 177.589C124.53 178.118 123.442 177.684 122.951 176.459C122.818 176.127 122.847 175.818 122.895 175.489C122.88 174.996 122.802 174.425 122.812 173.967L122.852 172.059V172.059C122.858 171.765 122.87 171.471 122.879 171.177L122.844 171.181V171.181C118.534 171.389 114.195 171.287 109.879 171.285L107.959 171.287C106.358 171.289 104.752 171.28 103.153 171.219L102.554 171.194C101.356 171.138 100.097 171.12 98.8555 171.014C99.0136 172.282 99.1615 173.55 99.2932 174.82C99.4181 176.025 98.1688 177.048 97.0545 177.048C95.7311 177.048 94.9741 176.013 94.8157 174.82C94.0678 169.195 93.7618 163.517 93.0473 157.888C92.4073 152.847 91.8524 147.793 91.2884 142.742L91.0999 141.058C89.0357 122.676 87.0317 104.287 85.1148 85.8886L84.2223 77.288C83.3209 68.6194 82.4142 59.9502 81.6496 51.2689C81.2123 46.3055 80.8093 41.3413 80.4301 36.3731C80.152 32.7232 79.9772 29.0936 79.8635 25.4509C79.4149 24.9917 79.19 24.3211 79.3887 23.6286C79.5049 23.2245 79.64 22.8226 79.7826 22.4214C79.7737 22.0271 79.7643 21.6331 79.7567 21.2383C79.7495 20.8649 80.1306 20.6726 80.4356 20.7345C80.9901 19.3988 81.6006 18.0746 82.1102 16.7519C82.9348 14.6108 83.6145 12.3037 84.7795 10.3228ZM38.7231 33.4635C47.3439 28.088 57.6056 24.2198 67.8835 24.6363C68.1172 24.6459 68.183 25.0002 67.9403 25.054C62.4581 26.2719 56.9156 27.7553 51.7254 29.9144C46.5202 32.0799 41.5707 34.9957 37.1625 38.4997C29.0292 44.9646 22.7074 53.3737 18.5447 62.8526C16.1065 68.4053 14.3974 74.2675 12.905 80.1319C11.3258 86.3382 10.0242 92.6114 8.942 98.9223C6.8045 111.388 5.56006 123.991 4.89788 136.616C4.22418 149.459 4.50187 162.31 4.02138 175.155C3.93833 177.38 0.741438 177.337 0.578953 175.155C-0.50972 160.552 0.0934182 145.715 1.10025 131.122C2.00556 118.004 3.58648 104.913 6.13224 92.0053L6.35399 90.8867C8.73387 78.9448 11.6044 66.7136 17.3579 55.8988C22.2698 46.6659 29.8531 38.9947 38.7231 33.4635ZM158.436 90.5374C158.481 90.4094 158.651 90.411 158.696 90.5374C159.679 93.2746 159.714 96.3632 159.975 99.2486L159.996 99.4701C160.246 102.102 160.435 104.737 160.61 107.374L160.676 108.363C161.38 119.121 162.26 129.867 163.586 140.569C164.907 151.23 166.693 161.817 168.625 172.383C168.84 173.56 168.317 174.758 167.077 175.097C165.984 175.396 164.581 174.726 164.349 173.556C163.15 167.492 162.18 161.419 161.315 155.301C159.792 144.53 158.655 133.708 157.925 122.854C157.558 117.403 157.332 111.954 157.242 106.491C157.201 103.957 157.267 101.416 157.403 98.8839L157.435 98.2997C157.585 95.7118 157.57 93.0054 158.436 90.5374ZM65.283 159.061C65.3982 158.999 65.5408 159.126 65.4678 159.245C63.7986 161.944 61.5403 164.271 59.3577 166.565C57.076 168.963 54.8506 171.433 52.5228 173.784C50.8408 175.482 48.1352 172.743 49.9103 171.185C52.4062 168.994 55.0148 166.913 57.555 164.771L58.6659 163.834C60.7487 162.084 62.8933 160.349 65.283 159.061ZM144.567 157.709C144.443 157.473 144.727 157.281 144.921 157.438C146.267 158.527 147.474 159.827 148.774 160.976C150.062 162.115 151.397 163.177 152.769 164.213C154.147 165.254 155.555 166.252 157.001 167.197C158.2 167.981 159.436 168.609 160.692 169.259C161.274 169.334 161.812 169.618 162.243 170.156C162.925 171.008 162.998 172.614 162.052 173.353L161.882 173.486V173.486C160.779 174.348 159.469 174.453 158.383 173.486C157.171 172.405 156.024 171.216 154.86 170.074L154.51 169.733C153.259 168.523 152.038 167.274 150.887 165.968L149.844 164.789C147.911 162.595 145.899 160.231 144.567 157.709ZM138.365 31.2533C138.141 31.1057 138.279 30.7083 138.555 30.8031L139.063 30.9775C141.181 31.7101 143.362 32.5225 145.286 33.6504C147.353 34.8623 149.262 36.3061 151.085 37.855C154.86 41.061 158.071 45.0034 160.8 49.1126C166.276 57.3583 169.663 66.8016 172.397 76.2505C175.312 86.3252 177.557 96.6168 179.39 106.937C181.252 117.426 182.689 128.009 183.633 138.619C184.098 143.846 184.41 149.075 184.567 154.32C184.648 157.018 184.645 159.714 184.623 162.413C184.617 163.107 184.622 163.801 184.63 164.495L184.656 166.576C184.67 167.892 184.829 169.275 184.514 170.561C184.008 172.631 180.569 172.244 180.682 170.129C180.578 169.425 180.574 168.698 180.601 167.969C180.585 167.875 180.567 167.779 180.547 167.682C180.491 167.402 180.539 167.143 180.649 166.921C180.667 166.571 180.683 166.224 180.689 165.882C180.712 164.493 180.71 163.108 180.671 161.719C180.59 158.79 180.473 155.861 180.355 152.933C180.118 147.082 179.789 141.229 179.313 135.393C177.654 115.077 174.152 94.6464 168.27 75.1018C165.538 66.0258 161.772 57.1162 156.37 49.2733C153.973 45.7915 151.267 42.5755 148.269 39.5907C145.251 36.5872 141.925 33.5993 138.365 31.2533ZM97.6625 162.214L98.0701 165.148C98.2738 166.615 98.4756 168.083 98.6671 169.551C99.9682 169.374 101.299 169.3 102.553 169.189C104.748 168.996 106.958 168.902 109.159 168.812C113.712 168.625 118.287 168.301 122.843 168.323C122.89 168.324 122.934 168.327 122.978 168.33L123.205 162.542V162.542L120.003 162.537V162.537C117.29 162.533 114.578 162.51 111.866 162.487C109.423 162.466 106.979 162.462 104.536 162.412L103.489 162.387C101.637 162.337 99.5916 162.44 97.6625 162.214ZM123.473 153.812C123.343 153.828 123.21 153.84 123.068 153.846C122.434 153.873 121.795 153.855 121.16 153.86C119.809 153.871 118.458 153.881 117.107 153.88C114.404 153.88 111.702 153.896 109 153.929C106.218 153.962 103.439 154.01 100.657 154.016C99.3088 154.018 97.9652 153.983 96.6178 153.945C96.8358 155.85 97.0635 157.754 97.3151 159.653C99.4074 159.372 101.658 159.514 103.703 159.494L103.968 159.491C106.759 159.443 109.553 159.478 112.345 159.482C115.216 159.485 118.088 159.494 120.96 159.518L123.32 159.537V159.537L123.324 159.419V159.419C123.394 157.552 123.438 155.683 123.473 153.812ZM95.58 144.698C95.8416 146.947 96.0872 149.2 96.3375 151.451C96.5038 151.426 96.6723 151.404 96.8439 151.386C98.1937 151.246 99.5406 151.125 100.895 151.042C103.596 150.875 106.296 150.787 109 150.715C111.781 150.641 114.563 150.584 117.345 150.545C118.697 150.526 120.048 150.528 121.399 150.537C122.033 150.542 122.674 150.522 123.307 150.564C123.382 150.569 123.454 150.577 123.526 150.585L123.574 147.204C123.582 146.641 123.59 146.077 123.599 145.514C121.51 145.642 119.386 145.593 117.299 145.594L116.818 145.595C114.195 145.607 111.571 145.571 108.948 145.517C106.243 145.461 103.543 145.373 100.842 145.201C99.7475 145.131 98.6612 145.038 97.573 144.919L97.0287 144.857C96.5552 144.801 96.0675 144.756 95.58 144.698ZM123.815 135.157C118.784 135.554 113.779 135.72 108.735 135.769L107.978 135.776C103.52 135.81 99.0251 135.993 94.5567 135.875C94.8238 138.18 95.0902 140.485 95.3588 142.789C95.9986 142.759 96.6416 142.759 97.2671 142.736C98.5393 142.691 99.8073 142.679 101.08 142.677C103.703 142.671 106.325 142.693 108.948 142.688C111.651 142.682 114.354 142.637 117.056 142.586C119.247 142.545 121.461 142.381 123.659 142.387L123.815 135.157V135.157ZM124.028 125.324C123.445 125.517 122.756 125.529 122.002 125.564L120.054 125.66C119.151 125.704 118.248 125.746 117.345 125.778C114.335 125.888 111.325 125.99 108.315 126.086C105.23 126.183 102.13 126.24 99.0451 126.143C97.5338 126.096 96.0352 126.017 94.5284 125.891C94.1559 125.86 93.7762 125.84 93.3958 125.813C93.7464 128.867 94.0985 131.92 94.4518 134.973C98.8989 134.43 103.38 134.092 107.822 133.53L111.838 133.02C115.852 132.51 119.863 132.01 123.892 131.589L124.028 125.324V125.324ZM124.242 115.383C123.386 115.593 122.411 115.583 121.59 115.634L121.438 115.645C119.881 115.762 118.321 115.821 116.761 115.859C113.703 115.934 110.644 115.972 107.585 115.99L105.746 116.002C103.294 116.016 100.843 116.022 98.3904 115.965C96.8172 115.929 95.2475 115.852 93.6755 115.774C93.2046 115.75 92.7231 115.735 92.2402 115.711C92.5688 118.602 92.9007 121.492 93.2319 124.382C93.7484 124.301 94.2673 124.239 94.762 124.156C96.029 123.943 97.2936 123.773 98.5697 123.62C101.334 123.291 104.112 123.054 106.889 122.854C109.74 122.648 112.593 122.474 115.444 122.275L117.464 122.134C118.137 122.087 118.81 122.042 119.483 122.001C120.633 121.931 121.97 122.01 123.111 121.761C123.42 121.633 123.763 121.604 124.106 121.677L124.242 115.383V115.383ZM124.501 103.747C124.205 104.121 123.763 104.317 123.236 104.385C120.491 104.739 117.674 104.796 114.906 104.963L114.418 104.994C111.559 105.181 108.699 105.328 105.838 105.479C102.899 105.635 99.9603 105.761 97.019 105.863C95.7703 105.906 94.5154 105.911 93.2648 105.895L92.7291 105.887C92.2155 105.879 91.6777 105.88 91.1386 105.863C91.4369 108.566 91.7382 111.269 92.0437 113.971C92.5933 113.912 93.1427 113.866 93.6757 113.81C95.2468 113.645 96.816 113.482 98.3907 113.358C101.374 113.124 104.36 112.984 107.35 112.836C110.408 112.686 113.468 112.585 116.527 112.443C118.01 112.374 119.493 112.289 120.971 112.153C122.008 112.058 123.239 111.707 124.32 111.836C124.379 109.139 124.44 106.443 124.501 103.747ZM124.742 93.3228C124.695 93.395 124.641 93.4647 124.574 93.5297C123.366 94.7178 121.876 94.6262 120.274 94.7509L120.176 94.7588C118.606 94.8901 117.035 95.015 115.464 95.1277C112.322 95.3534 109.175 95.5113 106.029 95.6519C102.809 95.7959 99.5686 95.895 96.3458 95.8296C94.282 95.7876 92.1205 95.795 90.0154 95.5948C90.3386 98.572 90.6639 101.549 90.9915 104.526C91.5833 104.415 92.179 104.33 92.7433 104.241C94.1653 104.019 95.5888 103.795 97.019 103.631C99.877 103.304 102.736 102.998 105.599 102.721C108.048 102.485 110.496 102.245 112.947 102.029L114.418 101.903C117.342 101.658 120.303 101.255 123.236 101.195C123.719 101.185 124.266 101.447 124.543 101.86C124.608 99.0141 124.675 96.1685 124.742 93.3228ZM124.945 84.8842C124.199 84.9745 123.394 84.9231 122.705 84.9456C120.963 85.0022 119.22 85.0547 117.478 85.1058L107.023 85.4129V85.4129C103.463 85.5173 99.8914 85.5956 96.3304 85.5454C94.764 85.5235 93.1907 85.5209 91.6248 85.4362L91.1031 85.4048C90.4587 85.362 89.6678 85.3561 88.8955 85.278L89.8073 93.6808V93.6808C91.9022 93.3797 94.0611 93.2671 96.1382 93.0905L96.582 93.0516C99.6454 92.7739 102.724 92.5902 105.792 92.3834C108.941 92.1713 112.084 91.9139 115.228 91.6505C116.799 91.5192 118.371 91.3881 119.941 91.2443L120.135 91.2253C121.618 91.0712 123.013 90.7434 124.326 91.6135C124.518 91.7405 124.669 91.9106 124.772 92.1009C124.829 89.6954 124.885 87.2897 124.945 84.8842ZM125.189 75.0775C118.822 75.3325 112.454 75.526 106.082 75.611C102.495 75.6587 98.9129 75.6251 95.3268 75.5506C93.7717 75.5181 92.2038 75.4441 90.6499 75.3256L90.068 75.279C89.3292 75.2172 88.553 75.1723 87.7802 75.0983C88.0997 77.9873 88.4165 80.8769 88.7309 83.7669C89.4911 83.6263 90.2856 83.5615 90.9517 83.4767L91.1031 83.4567C92.7584 83.2301 94.4294 83.098 96.0929 82.9523C99.332 82.6684 102.587 82.4855 105.835 82.33C109.161 82.1707 112.488 82.0358 115.814 81.8887L119.141 81.7405C119.695 81.7161 120.25 81.6921 120.804 81.6688C121.597 81.6356 122.389 81.6038 123.181 81.5711C123.571 81.5551 123.977 81.5023 124.369 81.5224L124.48 81.5075C124.531 81.501 124.577 81.4958 124.618 81.4913C124.725 81.4107 124.839 81.3439 124.961 81.2932L125.034 81.2647L125.189 75.0775ZM86.7363 65.7842C87.032 68.385 87.3243 70.9866 87.6128 73.5883C88.521 73.4852 89.44 73.4281 90.3072 73.3505C92.0556 73.1946 93.8122 73.058 95.566 72.9777L99.0709 72.8158C101.407 72.7083 103.744 72.6043 106.082 72.5194C112.481 72.2871 118.88 72.0208 125.275 71.6958C125.32 69.9313 125.367 68.1667 125.414 66.4022C125.107 66.7294 124.664 66.9445 124.081 66.9431C117.367 66.9252 110.648 66.9639 103.935 66.854C100.574 66.7989 97.2177 66.7179 93.8612 66.5464C92.2188 66.4626 90.5673 66.2916 88.9374 66.0669C88.2424 65.9711 87.4818 65.9029 86.7363 65.7842ZM85.6617 56.5164C85.9773 59.1805 86.2869 61.8456 86.5915 64.5112C87.4252 64.3631 88.2866 64.2843 89.0645 64.179C90.7359 63.9528 92.4176 63.7728 94.101 63.6782C97.3767 63.4939 100.654 63.401 103.934 63.3317C110.647 63.1899 117.367 63.1908 124.081 63.138C124.712 63.133 125.18 63.3814 125.487 63.752C125.534 62.0882 125.583 60.4245 125.634 58.7605C124.985 58.6924 124.342 58.596 123.747 58.5546C121.919 58.4276 120.089 58.3115 118.259 58.2072C114.44 57.9891 110.618 57.8031 106.796 57.6376C102.973 57.4721 99.1496 57.3105 95.3258 57.1696L93.6535 57.1088C90.9943 57.0104 88.2901 56.8861 85.6617 56.5164ZM84.459 46.4827C84.7876 49.1809 85.1111 51.8797 85.4339 54.5789L85.5321 55.4142V55.4142C88.7302 54.7957 92.1006 54.6145 95.3256 54.4781C99.1501 54.3162 102.968 54.2329 106.796 54.2446C110.62 54.256 114.438 54.3461 118.259 54.5032C120.168 54.5815 122.077 54.6723 123.985 54.7754C124.51 54.8036 125.125 54.7886 125.758 54.7976C125.772 54.3735 125.784 53.9494 125.798 53.5255C125.856 51.8076 125.913 50.0896 125.973 48.3719C124.682 49.0314 123.004 49.2974 121.707 49.5785L121.559 49.611C119.418 50.0896 117.231 50.3998 115.045 50.5894C110.752 50.9619 106.415 50.8227 102.126 50.4619L101.375 50.3979C97.6086 50.073 93.7043 49.6612 90.0534 48.7339C88.3143 48.2923 86.5164 47.6743 84.958 46.7785C84.796 46.6854 84.6287 46.5868 84.459 46.4827ZM120.721 14.4166C120.758 14.2707 120.978 14.2375 121.05 14.3739C121.557 15.3325 121.746 16.483 122.098 17.5101C122.477 18.6144 122.83 19.7267 123.249 20.8176C124.122 23.0968 125.152 25.2868 126.381 27.3981C127.597 29.4886 124.191 30.9809 123.296 28.6922C122.371 26.3304 121.612 23.8884 121.152 21.3926C120.928 20.175 120.728 18.9406 120.663 17.7033C120.607 16.6406 120.457 15.4533 120.721 14.4166Z" fill="black"/>
</svg>
